HIERARCHY
ROOT Hips
{
    OFFSET 0.000000 0.000000 0.000000
    CHANNELS 6 Xposition Yposition Zposition Zrotation Xrotation Yrotation
        JOINT Chest
        {
            OFFSET -0.000000 31.780966 -0.000000
            CHANNELS 3 Zrotation Xrotation Yrotation
            JOINT Neck
            {
                OFFSET -0.000000 23.880144 0.000000
                CHANNELS 3 Zrotation Xrotation Yrotation
                JOINT Head
                {
                    OFFSET -0.000000 10.511110 0.000000
                    CHANNELS 3 Zrotation Xrotation Yrotation
                    End Site
                    {
                        OFFSET -0.000000 16.244448 0.000000
                    }
                }
            }
            JOINT LeftCollar
            {
                OFFSET -0.000000 23.880144 0.000000
                CHANNELS 3 Zrotation Xrotation Yrotation
                JOINT LeftShoulder
                {
                    OFFSET 19.111111 -0.000000 0.000000
                    CHANNELS 3 Zrotation Xrotation Yrotation
                    JOINT LeftElbow
                    {
                        OFFSET 21.456259 0.000000 0.000000
                        CHANNELS 3 Zrotation Xrotation Yrotation
                        JOINT LeftWrist
                        {
                            OFFSET 25.693237 0.000000 0.000000
                            CHANNELS 3 Zrotation Xrotation Yrotation
                            End Site
                            {
                                OFFSET 0.000000 -14.333333 0.000000
                            }
                        }
                    }
                }
            }
            JOINT RightCollar
            {
                OFFSET -0.000000 23.880144 0.000000
                CHANNELS 3 Zrotation Xrotation Yrotation
                JOINT RightShoulder
                {
                    OFFSET -19.111111 0.000000 0.000000
                    CHANNELS 3 Zrotation Xrotation Yrotation
                    JOINT RightElbow
                    {
                        OFFSET -21.456259 0.000000 0.000000
                        CHANNELS 3 Zrotation Xrotation Yrotation
                        JOINT RightWrist
                        {
                            OFFSET -25.693237 0.000000 0.000000
                            CHANNELS 3 Zrotation Xrotation Yrotation
                            End Site
                            {
                                OFFSET -0.000000 -14.333333 0.000000
                            }
                        }
                    }
                }
            }
        }
    JOINT LeftHip
    {
        OFFSET 11.466667 0.000000 0.000000
        CHANNELS 3 Zrotation Xrotation Yrotation
        JOINT LeftKnee
        {
            OFFSET -0.000000 -37.225342 0.000000
            CHANNELS 3 Zrotation Xrotation Yrotation
            JOINT LeftAnkle
            {
                OFFSET -0.000000 -35.678333 0.000000
                CHANNELS 3 Zrotation Xrotation Yrotation
                End Site
                {
                    OFFSET -0.000000 -4.777778 16.244448
                }
            }
        }
    }
    JOINT RightHip
    {
        OFFSET -11.466667 0.000000 0.000000
        CHANNELS 3 Zrotation Xrotation Yrotation
        JOINT RightKnee
        {
            OFFSET -0.000000 -37.225342 0.000000
            CHANNELS 3 Zrotation Xrotation Yrotation
            JOINT RightAnkle
            {
                OFFSET -0.000000 -35.678333 0.000000
                CHANNELS 3 Zrotation Xrotation Yrotation
                End Site
                {
                    OFFSET -0.000000 -4.777778 16.244448
                }
            }
        }
    }
}
MOTION
Frames:    6
Frame Time:    0.010000
6.789874    83.070663    -46.251469    -0.224938    -1.220264    -53.306328    -1.855229    1.651631    -8.633791    11.267262    3.617949    2.062250    -10.339815    5.314329    2.947478    -17.845169    -0.691907    4.530735    -17.090548    31.821497    -19.610777    9.881964    -6.608356    -67.628387    88.619316    -4.857423    -17.288904    19.440285    -1.734621    -9.902589    32.782166    23.828899    0.811080    6.421649    3.892586    62.857155    -80.013321    -0.546942    -8.497587    -7.344628    9.487620    10.905524    1.389244    2.851279    27.543665    0.158156    -11.211503    19.612444    0.082330    -11.565681    14.422454    -2.721411    13.561130    16.326351    8.097295    -4.185280    -4.762739    
6.678146    83.054939    -46.179951    -0.743689    -1.580440    -52.643921    -1.654997    2.077367    -7.902417    9.153723    6.003093    4.678020    -9.936892    3.618644    5.544994    -18.663748    -1.088564    8.424126    -18.881975    32.172222    -19.396259    10.038144    -6.763094    -67.278305    89.348839    -4.316165    -16.731276    19.086262    -1.294248    -5.390955    32.973991    24.380011    -1.609056    7.758228    5.183210    61.406292    -81.350739    -1.825610    -9.330260    -7.221100    10.319162    11.383478    1.374664    2.572634    26.997299    0.238112    -11.236541    19.133434    0.013719    -10.590940    14.417384    -2.692947    13.325343    15.644023    8.070313    -4.216869    -4.744750    
6.521773    83.018341    -46.207123    -0.863616    -1.542480    -51.831921    -1.568033    2.395765    -7.550376    9.428921    5.432726    4.874258    -10.091540    3.545376    5.642322    -18.836576    -1.294896    8.852237    -19.779819    33.395256    -20.047581    10.114514    -6.759352    -66.954369    89.372368    -4.180882    -16.737673    19.017479    -1.144025    -6.008763    32.855961    24.509535    -1.753708    8.129458    5.159868    61.347103    -80.854462    -0.613169    -10.808270    -6.781188    10.441545    11.962235    1.267009    2.617045    25.473154    -0.018325    -11.297221    19.228384    0.177436    -10.168628    14.524177    -2.763197    13.104107    14.620524    8.024992    -4.209003    -4.628772    
6.455325    83.015900    -46.207489    -1.008545    -1.615782    -51.285748    -1.580648    2.726581    -7.167060    9.679721    5.066422    5.105190    -10.463058    3.762421    5.886634    -18.915983    -1.424292    9.189157    -20.581184    34.285065    -20.442335    10.132801    -6.689336    -66.724327    89.744949    -4.022642    -16.565838    18.950243    -1.080521    -6.265354    32.929718    24.475849    -2.087733    8.668096    5.441677    60.991741    -81.470169    -0.291644    -10.940909    -6.592639    10.659365    12.225768    1.231128    2.544156    24.762991    -0.075221    -11.302274    19.140003    0.197591    -9.818879    14.517076    -2.775859    13.015522    14.077292    8.005287    -4.242364    -4.610971    
6.398824    83.019272    -46.213409    -1.118743    -1.674505    -50.647198    -1.600945    3.051147    -6.759809    9.903309    4.638086    5.339644    -10.809273    4.016847    6.129659    -18.996374    -1.527234    9.568429    -21.479761    35.270653    -20.895744    10.180433    -6.687263    -66.439743    90.121155    -3.899242    -16.394623    18.850584    -1.103800    -6.561892    33.086868    24.530640    -2.516873    9.278086    5.787978    60.611149    -82.598671    0.132244    -10.618969    -6.399126    10.831703    12.425896    1.203585    2.460434    24.022579    -0.123155    -11.286303    19.045723    0.198949    -9.510285    14.461832    -2.785026    12.951403    13.515225    7.992419    -4.290218    -4.610835    
6.357229    83.028107    -46.225555    -1.179881    -1.711072    -49.920238    -1.629454    3.351593    -6.354079    10.065491    4.170362    5.561538    -11.086681    4.282313    6.352457    -19.065840    -1.616938    9.976151    -22.464340    36.350067    -21.372522    10.266840    -6.719460    -66.115303    90.506882    -3.805983    -16.177494    18.724257    -1.117069    -6.895591    33.323936    24.577358    -2.995833    10.049760    6.258053    60.141922    -84.377945    0.610312    -9.681602    -6.210667    10.938516    12.535479    1.190063    2.364952    23.287010    -0.156918    -11.243642    18.940601    0.175076    -9.267529    14.346649    -2.788370    12.919669    12.951501    7.993730    -4.352322    -4.629713    
